<svg version="1.1" id="Layer_1" xmlns="http://www.w3.org/2000/svg" xmlns:xlink="http://www.w3.org/1999/xlink" x="0px" y="0px"
	 width="100%" viewBox="0 0 400 400" enable-background="new 0 0 400 400" xml:space="preserve">
<path fill="#1A1B2D" opacity="1.000000" stroke="none" 
	d="
M227.000000,401.000000 
	C151.356812,401.000000 76.213638,401.000000 1.035228,401.000000 
	C1.035228,267.731812 1.035228,134.463623 1.035228,1.097718 
	C134.226471,1.097718 267.453033,1.097718 400.839783,1.097718 
	C400.839783,134.333176 400.839783,267.666565 400.839783,401.000000 
	C343.130371,401.000000 285.315186,401.000000 227.000000,401.000000 
M68.684753,144.686264 
	C62.117924,143.440216 60.116531,144.467224 60.083263,149.830139 
	C59.962357,169.323334 60.044178,188.817749 60.037636,208.311707 
	C60.036427,211.924103 61.562950,213.915375 65.411232,213.934952 
	C69.189537,213.954178 70.925911,212.156357 70.928001,208.465469 
	C70.929977,204.966751 71.181053,201.452621 70.933334,197.972977 
	C70.560890,192.741531 72.288147,188.678970 76.240540,185.181152 
	C80.878975,181.076218 81.388504,180.917908 85.108727,185.833450 
	C91.341408,194.068726 97.421730,202.421677 103.771698,210.564819 
	C106.951393,214.642441 112.739662,215.213303 117.951225,212.134003 
	C116.856819,210.496933 115.851540,208.822250 114.681946,207.271469 
	C107.259293,197.429703 99.868774,187.562210 92.312950,177.823257 
	C89.949234,174.776581 89.812386,172.457367 92.754578,169.666718 
	C100.125954,162.675034 107.300728,155.475586 114.521912,148.326675 
	C115.366570,147.490463 116.007736,146.448700 117.233887,144.870834 
	C110.460205,143.546066 105.071259,143.159805 100.319069,148.120621 
	C92.483276,156.300430 84.354507,164.200195 76.315155,172.183701 
	C75.105049,173.385391 73.710510,174.401367 71.495461,176.265640 
	C71.259720,173.239777 71.019196,171.478180 71.003769,169.714615 
	C70.949844,163.550201 71.104927,157.380615 70.893875,151.222809 
	C70.823814,149.178497 69.888885,147.163803 68.684753,144.686264 
M173.930527,212.293213 
	C174.150955,211.847412 174.561249,211.402954 174.564362,210.955627 
	C174.670914,195.639420 174.846313,180.321335 174.618698,165.009369 
	C174.599457,163.714310 171.394608,161.122055 170.449081,161.441238 
	C167.774216,162.344177 165.504578,164.447586 162.547821,166.432114 
	C148.851044,158.391098 138.611313,158.982239 129.434708,169.092758 
	C120.888885,178.508255 120.445175,194.892365 129.312164,205.973434 
	C132.230469,209.620422 136.885849,212.591141 141.347687,214.136398 
	C149.868027,217.087189 157.056885,212.510422 163.736343,207.555344 
	C166.928696,214.446365 167.574646,214.780090 173.930527,212.293213 
M224.088867,185.767960 
	C224.070496,186.600723 224.021820,187.434067 224.038300,188.266144 
	C224.295807,201.276154 232.272552,211.294937 244.755554,214.299164 
	C256.521393,217.130798 268.712646,211.437958 274.639465,200.344574 
	C279.877136,190.541122 277.304138,175.092484 268.947327,167.541763 
	C260.857452,160.232208 251.115784,159.157211 241.306992,162.334106 
	C230.786896,165.741409 225.602692,174.113739 224.088867,185.767960 
M335.017212,189.500000 
	C334.998749,182.005341 334.986633,174.510635 334.959167,167.016022 
	C334.945251,163.220993 333.343475,160.944260 329.226654,161.249985 
	C325.293152,161.542114 325.057556,164.446518 325.031342,167.407455 
	C324.953217,176.233261 325.198547,185.073822 324.760010,193.880844 
	C324.400574,201.098999 318.928467,205.753815 311.794952,205.804108 
	C305.116852,205.851196 300.856567,201.589905 300.158081,194.014877 
	C299.944519,191.698975 299.990723,189.356522 299.971680,187.025772 
	C299.914490,180.031677 299.942200,173.036285 299.816742,166.043579 
	C299.759186,162.834442 297.932373,161.222046 294.706909,161.181503 
	C291.641388,161.142975 289.180664,162.254044 289.234222,165.595016 
	C289.420532,177.222610 288.980103,188.960144 290.461182,200.438705 
	C291.915436,211.709641 301.992401,217.231720 312.869232,213.871613 
	C316.859894,212.638824 320.456238,210.129517 324.523834,208.053833 
	C325.016052,211.759018 326.544220,214.492554 330.920197,213.804367 
	C335.778381,213.040375 334.897675,209.174652 334.977203,205.988480 
	C335.105957,200.828537 335.015320,195.663086 335.017212,189.500000 
M322.136627,250.329727 
	C321.744232,245.760193 321.158569,241.113327 316.547119,238.775604 
	C309.559479,235.233261 303.780396,238.427780 298.517212,243.271439 
	C292.192230,235.162186 285.204987,236.211716 279.516357,239.957520 
	C275.956665,239.074020 273.567535,237.746719 271.739594,238.293945 
	C270.583923,238.639938 269.719635,241.768219 269.666901,243.674622 
	C269.446167,251.655075 269.536591,259.645782 269.612976,267.631775 
	C269.636536,270.097168 269.447937,272.968903 273.235748,272.889557 
	C276.952423,272.811737 276.731537,269.979523 276.778839,267.500244 
	C276.877228,262.343781 276.707825,257.178070 276.943481,252.029663 
	C277.171814,247.041260 280.552155,243.920029 285.239990,243.917526 
	C289.623322,243.915192 291.927277,246.416641 292.131500,251.881256 
	C292.330261,257.199280 291.961884,262.552765 292.430908,267.838470 
	C292.587952,269.608551 294.306519,272.359924 295.746979,272.675751 
	C299.346100,273.464844 299.399170,270.263000 299.462677,267.744568 
	C299.596863,262.423401 299.401123,257.084503 299.759491,251.781174 
	C300.099274,246.753098 303.571503,243.807816 308.300781,243.904800 
	C312.672516,243.994476 314.852417,246.449478 315.053955,252.014114 
	C315.246552,257.332458 315.121735,262.661621 315.195770,267.985229 
	C315.229218,270.388519 315.350037,272.812469 318.709778,272.907745 
	C322.118896,273.004425 322.352020,270.586700 322.359009,268.173340 
	C322.375397,262.518005 322.268982,256.862274 322.136627,250.329727 
M219.706375,162.395523 
	C212.091675,158.468170 206.688950,163.682816 200.640274,167.761856 
	C199.858536,162.835281 197.592117,160.464554 193.035294,161.236816 
	C188.203979,162.055603 189.065460,165.919144 189.042480,169.093414 
	C188.953384,181.404221 188.980484,193.716110 189.017410,206.027451 
	C189.036499,212.390091 190.207993,213.911819 194.614456,213.919006 
	C200.109024,213.927979 199.958130,210.057693 199.972122,206.280716 
	C199.997986,199.293289 199.892822,192.303177 200.053299,185.319016 
	C200.237610,177.297241 204.669281,172.718094 212.597641,172.020386 
	C218.949997,171.461365 220.223358,169.926941 219.706375,162.395523 
M209.071701,243.893478 
	C213.023727,244.932571 214.060455,247.952042 214.128571,251.521805 
	C214.239594,257.340027 214.039368,263.176117 214.469894,268.967560 
	C214.572906,270.353394 216.643509,271.592987 217.809174,272.899811 
	C218.991272,271.630157 221.158905,270.385742 221.192200,269.086639 
	C221.379272,261.786407 221.538391,254.421661 220.773239,247.177567 
	C219.889618,238.811859 211.686111,234.762985 203.924011,238.271332 
	C202.190063,239.055038 200.526901,239.995361 197.829834,241.376221 
	C197.829834,236.269669 198.148773,232.120911 197.673050,228.065384 
	C197.482437,226.440521 195.543015,225.020782 194.399597,223.507675 
	C193.185394,224.930023 190.945023,226.332153 190.916550,227.777863 
	C190.647919,241.407990 190.649643,255.047653 190.914856,268.677917 
	C190.942673,270.107941 193.168076,271.495209 194.373932,272.902313 
	C195.521194,271.410309 197.498947,270.001617 197.658630,268.410461 
	C198.121384,263.799042 197.818207,259.113861 197.881073,254.458511 
	C197.989136,246.454926 200.115387,244.283386 209.071701,243.893478 
M260.121368,268.257141 
	C259.556580,264.344299 257.705078,263.815735 254.232193,265.495117 
	C247.920303,268.547363 241.281998,267.265930 238.020462,262.584991 
	C237.226608,261.445648 236.397415,259.627136 236.794815,258.580475 
	C237.122604,257.717163 239.227982,257.152588 240.564819,257.113617 
	C246.381531,256.943909 252.206619,256.932220 258.025909,257.029053 
	C261.568085,257.087982 262.697723,255.449783 262.441193,252.095383 
	C261.890564,244.895493 256.572296,238.593689 249.720108,237.281891 
	C242.273941,235.856384 234.139236,239.807358 230.852600,246.445709 
	C226.732025,254.768509 228.670349,264.598724 235.492950,269.979309 
	C242.389816,275.418488 252.281601,274.964050 260.121368,268.257141 
M340.402191,272.234589 
	C346.161407,274.574799 351.884003,274.264221 357.220215,271.271881 
	C358.805389,270.382996 360.863678,267.776093 360.533722,266.532654 
	C359.678040,263.308197 357.195984,264.630371 354.942749,265.681580 
	C348.807159,268.544037 341.887817,267.104645 338.828979,262.323944 
	C338.108093,261.197235 337.637085,259.484161 337.958832,258.284241 
	C338.138397,257.614532 340.178284,257.132050 341.392273,257.104034 
	C347.373779,256.965881 353.359741,256.963867 359.343506,257.005646 
	C362.280640,257.026184 363.518250,255.742111 363.492615,252.781433 
	C363.421631,244.588654 356.655457,237.436798 348.442291,237.042496 
	C340.053772,236.639755 332.872894,241.811981 330.498566,249.966934 
	C327.888641,258.931183 331.223267,266.908691 340.402191,272.234589 
M170.868759,251.500824 
	C170.868958,249.337341 170.764633,247.167664 170.892822,245.011780 
	C171.107422,241.402557 170.463638,237.187943 172.147568,234.427795 
	C173.161636,232.765640 177.895859,233.372849 180.958466,232.961380 
	C181.123306,232.939224 181.368118,232.992065 181.443146,232.900894 
	C182.378922,231.764053 184.016235,230.598602 184.003006,229.457535 
	C183.989822,228.321793 182.338150,226.254028 181.361771,226.228226 
	C172.050766,225.982239 162.727875,225.982010 153.416779,226.227753 
	C152.379379,226.255112 150.458191,228.401276 150.603745,229.294968 
	C150.821640,230.632843 152.398178,231.867401 153.624268,232.866959 
	C154.138275,233.286011 155.233917,232.995865 156.065369,233.020615 
	C163.110001,233.230347 163.235245,233.328430 163.273972,240.464127 
	C163.324524,249.783310 163.299637,259.102936 163.358170,268.422028 
	C163.374313,270.993103 164.199402,273.536224 167.272217,272.723297 
	C168.727631,272.338226 170.531921,270.026642 170.660553,268.463043 
	C171.095810,263.172241 170.852417,257.825623 170.868759,251.500824 
M393.848938,243.770096 
	C392.962830,242.365448 392.330902,240.053574 391.144379,239.721161 
	C387.098450,238.587601 382.800751,237.362122 378.705231,237.655075 
	C373.941437,237.995819 370.446991,241.167557 369.758698,246.322159 
	C369.050049,251.629425 372.094482,254.785034 376.526978,256.770325 
	C379.094757,257.920410 382.063324,258.285706 384.452820,259.684998 
	C386.014038,260.599274 386.860443,262.734222 388.027039,264.322357 
	C386.241852,265.493256 384.507294,267.509491 382.658630,267.620178 
	C380.370728,267.757141 377.751648,266.700439 375.707214,265.452484 
	C373.236572,263.944305 371.302338,264.429443 370.351807,266.579468 
	C369.938446,267.514374 371.274353,269.852112 372.436523,270.742340 
	C376.857819,274.129364 381.916687,274.450256 387.142853,272.850616 
	C391.903931,271.393280 394.854645,268.398621 395.124817,263.211029 
	C395.380707,258.297119 392.641754,255.500458 388.394226,253.835327 
	C385.762177,252.803528 382.871887,252.222809 380.519226,250.760910 
	C379.010895,249.823654 378.270325,247.650711 377.185577,246.031677 
	C378.889832,245.036484 380.542877,243.360657 382.312042,243.227448 
	C384.290009,243.078506 386.336731,244.608521 388.422333,244.880539 
	C390.073303,245.095886 391.828186,244.514587 393.848938,243.770096 
M351.006866,386.020721 
	C352.975647,386.374481 355.264374,386.206512 356.852753,387.180573 
	C361.476044,390.015839 366.031433,388.789429 370.692657,387.713806 
	C369.244720,387.096008 367.796814,386.478210 365.808380,385.629791 
	C366.999359,383.760864 368.166168,382.362122 368.840485,380.756500 
	C369.595398,378.958984 369.904175,376.974060 370.407043,375.070679 
	C368.170746,374.801392 365.934448,374.532074 363.249481,374.208740 
	C363.696594,375.651855 363.737427,375.987701 363.894287,376.255554 
	C364.683197,377.602692 366.503723,379.567719 366.131653,380.153870 
	C364.774719,382.291443 362.689270,383.966553 360.878418,385.815979 
	C359.707916,384.360718 358.362305,383.010590 357.409821,381.424408 
	C356.134705,379.300964 355.164062,376.994629 354.062683,374.766846 
	C353.417786,374.803345 352.772888,374.839844 352.127991,374.876343 
	C350.541595,378.917786 348.955200,382.959198 347.368774,387.000641 
	C347.754272,387.214172 348.139771,387.427704 348.525269,387.641205 
	C349.185638,387.214661 349.845978,386.788116 351.006866,386.020721 
M339.079895,379.614319 
	C336.903564,378.635345 334.727234,377.656342 332.460754,376.636780 
	C332.460754,379.800140 332.460754,383.281372 332.460754,386.697479 
	C334.450134,385.424225 336.157654,383.458618 337.802521,383.509674 
	C339.666016,383.567505 341.473389,385.433136 343.586792,386.678772 
	C343.586792,383.239288 343.586792,379.757385 343.586792,374.954834 
	C341.768372,377.057373 340.747864,378.237305 339.079895,379.614319 
M377.654083,375.802673 
	C377.358612,375.674957 377.047394,375.424255 376.772766,375.459320 
	C376.561768,375.486328 376.188232,375.963806 376.241699,376.087128 
	C377.794067,379.666962 379.391174,383.227386 381.054352,386.955200 
	C382.731873,383.124084 384.361298,379.402832 385.990753,375.681549 
	C383.077850,377.014771 380.917450,380.676208 377.654083,375.802673 
z"/>
<path fill="#131418" opacity="1.000000" stroke="none" 
	d="
M69.017059,144.910919 
	C69.888885,147.163803 70.823814,149.178497 70.893875,151.222809 
	C71.104927,157.380615 70.949844,163.550201 71.003769,169.714615 
	C71.019196,171.478180 71.259720,173.239777 71.495461,176.265640 
	C73.710510,174.401367 75.105049,173.385391 76.315155,172.183701 
	C84.354507,164.200195 92.483276,156.300430 100.319069,148.120621 
	C105.071259,143.159805 110.460205,143.546066 117.233887,144.870834 
	C116.007736,146.448700 115.366570,147.490463 114.521912,148.326675 
	C107.300728,155.475586 100.125954,162.675034 92.754578,169.666718 
	C89.812386,172.457367 89.949234,174.776581 92.312950,177.823257 
	C99.868774,187.562210 107.259293,197.429703 114.681946,207.271469 
	C115.851540,208.822250 116.856819,210.496933 117.951225,212.134003 
	C112.739662,215.213303 106.951393,214.642441 103.771698,210.564819 
	C97.421730,202.421677 91.341408,194.068726 85.108727,185.833450 
	C81.388504,180.917908 80.878975,181.076218 76.240540,185.181152 
	C72.288147,188.678970 70.560890,192.741531 70.933334,197.972977 
	C71.181053,201.452621 70.929977,204.966751 70.928001,208.465469 
	C70.925911,212.156357 69.189537,213.954178 65.411232,213.934952 
	C61.562950,213.915375 60.036427,211.924103 60.037636,208.311707 
	C60.044178,188.817749 59.962357,169.323334 60.083263,149.830139 
	C60.116531,144.467224 62.117924,143.440216 69.017059,144.910919 
z"/>
<path fill="#131418" opacity="1.000000" stroke="none" 
	d="
M173.651566,212.578232 
	C167.574646,214.780090 166.928696,214.446365 163.736343,207.555344 
	C157.056885,212.510422 149.868027,217.087189 141.347687,214.136398 
	C136.885849,212.591141 132.230469,209.620422 129.312164,205.973434 
	C120.445175,194.892365 120.888885,178.508255 129.434708,169.092758 
	C138.611313,158.982239 148.851044,158.391098 162.547821,166.432114 
	C165.504578,164.447586 167.774216,162.344177 170.449081,161.441238 
	C171.394608,161.122055 174.599457,163.714310 174.618698,165.009369 
	C174.846313,180.321335 174.670914,195.639420 174.564362,210.955627 
	C174.561249,211.402954 174.150955,211.847412 173.651566,212.578232 
M135.503662,196.783615 
	C138.804047,203.218689 144.231812,205.505447 151.196198,204.927414 
	C156.915482,204.452744 160.825851,201.405670 163.051956,196.325089 
	C165.568466,190.581680 165.662537,184.728180 162.895325,178.953506 
	C159.890274,172.682541 154.749069,169.880249 148.001480,170.161972 
	C141.476257,170.434433 137.320984,174.199905 134.926926,180.076187 
	C132.742233,185.438568 133.003998,190.783554 135.503662,196.783615 
z"/>
<path fill="#131418" opacity="1.000000" stroke="none" 
	d="
M224.120453,185.326401 
	C225.602692,174.113739 230.786896,165.741409 241.306992,162.334106 
	C251.115784,159.157211 260.857452,160.232208 268.947327,167.541763 
	C277.304138,175.092484 279.877136,190.541122 274.639465,200.344574 
	C268.712646,211.437958 256.521393,217.130798 244.755554,214.299164 
	C232.272552,211.294937 224.295807,201.276154 224.038300,188.266144 
	C224.021820,187.434067 224.070496,186.600723 224.120453,185.326401 
M238.198456,199.192307 
	C241.569611,201.087799 244.747253,203.924576 248.355591,204.666367 
	C254.320969,205.892715 260.051422,204.326675 263.718567,198.751968 
	C267.816742,192.522003 267.991974,185.887405 264.977448,179.212006 
	C260.385803,169.044250 248.026276,166.788010 240.011948,174.548294 
	C233.995300,180.374222 233.110886,189.880112 238.198456,199.192307 
z"/>
<path fill="#131418" opacity="1.000000" stroke="none" 
	d="
M335.017273,189.999985 
	C335.015320,195.663086 335.105957,200.828537 334.977203,205.988480 
	C334.897675,209.174652 335.778381,213.040375 330.920197,213.804367 
	C326.544220,214.492554 325.016052,211.759018 324.523834,208.053833 
	C320.456238,210.129517 316.859894,212.638824 312.869232,213.871613 
	C301.992401,217.231720 291.915436,211.709641 290.461182,200.438705 
	C288.980103,188.960144 289.420532,177.222610 289.234222,165.595016 
	C289.180664,162.254044 291.641388,161.142975 294.706909,161.181503 
	C297.932373,161.222046 299.759186,162.834442 299.816742,166.043579 
	C299.942200,173.036285 299.914490,180.031677 299.971680,187.025772 
	C299.990723,189.356522 299.944519,191.698975 300.158081,194.014877 
	C300.856567,201.589905 305.116852,205.851196 311.794952,205.804108 
	C318.928467,205.753815 324.400574,201.098999 324.760010,193.880844 
	C325.198547,185.073822 324.953217,176.233261 325.031342,167.407455 
	C325.057556,164.446518 325.293152,161.542114 329.226654,161.249985 
	C333.343475,160.944260 334.945251,163.220993 334.959167,167.016022 
	C334.986633,174.510635 334.998749,182.005341 335.017273,189.999985 
z"/>
<path fill="#485360" opacity="1.000000" stroke="none" 
	d="
M322.174438,250.768219 
	C322.268982,256.862274 322.375397,262.518005 322.359009,268.173340 
	C322.352020,270.586700 322.118896,273.004425 318.709778,272.907745 
	C315.350037,272.812469 315.229218,270.388519 315.195770,267.985229 
	C315.121735,262.661621 315.246552,257.332458 315.053955,252.014114 
	C314.852417,246.449478 312.672516,243.994476 308.300781,243.904800 
	C303.571503,243.807816 300.099274,246.753098 299.759491,251.781174 
	C299.401123,257.084503 299.596863,262.423401 299.462677,267.744568 
	C299.399170,270.263000 299.346100,273.464844 295.746979,272.675751 
	C294.306519,272.359924 292.587952,269.608551 292.430908,267.838470 
	C291.961884,262.552765 292.330261,257.199280 292.131500,251.881256 
	C291.927277,246.416641 289.623322,243.915192 285.239990,243.917526 
	C280.552155,243.920029 277.171814,247.041260 276.943481,252.029663 
	C276.707825,257.178070 276.877228,262.343781 276.778839,267.500244 
	C276.731537,269.979523 276.952423,272.811737 273.235748,272.889557 
	C269.447937,272.968903 269.636536,270.097168 269.612976,267.631775 
	C269.536591,259.645782 269.446167,251.655075 269.666901,243.674622 
	C269.719635,241.768219 270.583923,238.639938 271.739594,238.293945 
	C273.567535,237.746719 275.956665,239.074020 279.516357,239.957520 
	C285.204987,236.211716 292.192230,235.162186 298.517212,243.271439 
	C303.780396,238.427780 309.559479,235.233261 316.547119,238.775604 
	C321.158569,241.113327 321.744232,245.760193 322.174438,250.768219 
z"/>
<path fill="#131419" opacity="1.000000" stroke="none" 
	d="
M219.890762,162.702667 
	C220.223358,169.926941 218.949997,171.461365 212.597641,172.020386 
	C204.669281,172.718094 200.237610,177.297241 200.053299,185.319016 
	C199.892822,192.303177 199.997986,199.293289 199.972122,206.280716 
	C199.958130,210.057693 200.109024,213.927979 194.614456,213.919006 
	C190.207993,213.911819 189.036499,212.390091 189.017410,206.027451 
	C188.980484,193.716110 188.953384,181.404221 189.042480,169.093414 
	C189.065460,165.919144 188.203979,162.055603 193.035294,161.236816 
	C197.592117,160.464554 199.858536,162.835281 200.640274,167.761856 
	C206.688950,163.682816 212.091675,158.468170 219.890762,162.702667 
z"/>
<path fill="#485360" opacity="1.000000" stroke="none" 
	d="
M208.658157,243.826752 
	C200.115387,244.283386 197.989136,246.454926 197.881073,254.458511 
	C197.818207,259.113861 198.121384,263.799042 197.658630,268.410461 
	C197.498947,270.001617 195.521194,271.410309 194.373932,272.902313 
	C193.168076,271.495209 190.942673,270.107941 190.914856,268.677917 
	C190.649643,255.047653 190.647919,241.407990 190.916550,227.777863 
	C190.945023,226.332153 193.185394,224.930023 194.399597,223.507675 
	C195.543015,225.020782 197.482437,226.440521 197.673050,228.065384 
	C198.148773,232.120911 197.829834,236.269669 197.829834,241.376221 
	C200.526901,239.995361 202.190063,239.055038 203.924011,238.271332 
	C211.686111,234.762985 219.889618,238.811859 220.773239,247.177567 
	C221.538391,254.421661 221.379272,261.786407 221.192200,269.086639 
	C221.158905,270.385742 218.991272,271.630157 217.809174,272.899811 
	C216.643509,271.592987 214.572906,270.353394 214.469894,268.967560 
	C214.039368,263.176117 214.239594,257.340027 214.128571,251.521805 
	C214.060455,247.952042 213.023727,244.932571 208.658157,243.826752 
z"/>
<path fill="#48535F" opacity="1.000000" stroke="none" 
	d="
M260.003052,268.557983 
	C252.281601,274.964050 242.389816,275.418488 235.492950,269.979309 
	C228.670349,264.598724 226.732025,254.768509 230.852600,246.445709 
	C234.139236,239.807358 242.273941,235.856384 249.720108,237.281891 
	C256.572296,238.593689 261.890564,244.895493 262.441193,252.095383 
	C262.697723,255.449783 261.568085,257.087982 258.025909,257.029053 
	C252.206619,256.932220 246.381531,256.943909 240.564819,257.113617 
	C239.227982,257.152588 237.122604,257.717163 236.794815,258.580475 
	C236.397415,259.627136 237.226608,261.445648 238.020462,262.584991 
	C241.281998,267.265930 247.920303,268.547363 254.232193,265.495117 
	C257.705078,263.815735 259.556580,264.344299 260.003052,268.557983 
M250.949692,251.238846 
	C255.197601,250.846451 255.385574,248.941681 252.715469,246.207428 
	C249.485565,242.899902 242.217422,242.927216 239.072388,246.323486 
	C238.282944,247.176010 237.705490,248.633545 237.811478,249.738098 
	C237.866379,250.310135 239.607651,251.068314 240.626785,251.134964 
	C243.766861,251.340393 246.926086,251.253281 250.949692,251.238846 
z"/>
<path fill="#48535F" opacity="1.000000" stroke="none" 
	d="
M340.045044,272.092651 
	C331.223267,266.908691 327.888641,258.931183 330.498566,249.966934 
	C332.872894,241.811981 340.053772,236.639755 348.442291,237.042496 
	C356.655457,237.436798 363.421631,244.588654 363.492615,252.781433 
	C363.518250,255.742111 362.280640,257.026184 359.343506,257.005646 
	C353.359741,256.963867 347.373779,256.965881 341.392273,257.104034 
	C340.178284,257.132050 338.138397,257.614532 337.958832,258.284241 
	C337.637085,259.484161 338.108093,261.197235 338.828979,262.323944 
	C341.887817,267.104645 348.807159,268.544037 354.942749,265.681580 
	C357.195984,264.630371 359.678040,263.308197 360.533722,266.532654 
	C360.863678,267.776093 358.805389,270.382996 357.220215,271.271881 
	C351.884003,274.264221 346.161407,274.574799 340.045044,272.092651 
M339.975677,246.310379 
	C337.626068,248.970093 337.807312,250.911850 341.700165,251.154831 
	C345.342560,251.382156 349.024963,251.372040 352.664948,251.115051 
	C355.953796,250.882858 356.094818,249.042786 354.249023,246.741379 
	C351.467957,243.273895 346.002594,242.910873 339.975677,246.310379 
z"/>
<path fill="#47535F" opacity="1.000000" stroke="none" 
	d="
M170.868591,252.000580 
	C170.852417,257.825623 171.095810,263.172241 170.660553,268.463043 
	C170.531921,270.026642 168.727631,272.338226 167.272217,272.723297 
	C164.199402,273.536224 163.374313,270.993103 163.358170,268.422028 
	C163.299637,259.102936 163.324524,249.783310 163.273972,240.464127 
	C163.235245,233.328430 163.110001,233.230347 156.065369,233.020615 
	C155.233917,232.995865 154.138275,233.286011 153.624268,232.866959 
	C152.398178,231.867401 150.821640,230.632843 150.603745,229.294968 
	C150.458191,228.401276 152.379379,226.255112 153.416779,226.227753 
	C162.727875,225.982010 172.050766,225.982239 181.361771,226.228226 
	C182.338150,226.254028 183.989822,228.321793 184.003006,229.457535 
	C184.016235,230.598602 182.378922,231.764053 181.443146,232.900894 
	C181.368118,232.992065 181.123306,232.939224 180.958466,232.961380 
	C177.895859,233.372849 173.161636,232.765640 172.147568,234.427795 
	C170.463638,237.187943 171.107422,241.402557 170.892822,245.011780 
	C170.764633,247.167664 170.868958,249.337341 170.868591,252.000580 
z"/>
<path fill="#485460" opacity="1.000000" stroke="none" 
	d="
M393.692932,244.028580 
	C391.828186,244.514587 390.073303,245.095886 388.422333,244.880539 
	C386.336731,244.608521 384.290009,243.078506 382.312042,243.227448 
	C380.542877,243.360657 378.889832,245.036484 377.185577,246.031677 
	C378.270325,247.650711 379.010895,249.823654 380.519226,250.760910 
	C382.871887,252.222809 385.762177,252.803528 388.394226,253.835327 
	C392.641754,255.500458 395.380707,258.297119 395.124817,263.211029 
	C394.854645,268.398621 391.903931,271.393280 387.142853,272.850616 
	C381.916687,274.450256 376.857819,274.129364 372.436523,270.742340 
	C371.274353,269.852112 369.938446,267.514374 370.351807,266.579468 
	C371.302338,264.429443 373.236572,263.944305 375.707214,265.452484 
	C377.751648,266.700439 380.370728,267.757141 382.658630,267.620178 
	C384.507294,267.509491 386.241852,265.493256 388.027039,264.322357 
	C386.860443,262.734222 386.014038,260.599274 384.452820,259.684998 
	C382.063324,258.285706 379.094757,257.920410 376.526978,256.770325 
	C372.094482,254.785034 369.050049,251.629425 369.758698,246.322159 
	C370.446991,241.167557 373.941437,237.995819 378.705231,237.655075 
	C382.800751,237.362122 387.098450,238.587601 391.144379,239.721161 
	C392.330902,240.053574 392.962830,242.365448 393.692932,244.028580 
z"/>
<path fill="#131419" opacity="1.000000" stroke="none" 
	d="
M350.756592,386.191162 
	C349.845978,386.788116 349.185638,387.214661 348.525269,387.641205 
	C348.139771,387.427704 347.754272,387.214172 347.368774,387.000641 
	C348.955200,382.959198 350.541595,378.917786 352.127991,374.876343 
	C352.772888,374.839844 353.417786,374.803345 354.062683,374.766846 
	C355.164062,376.994629 356.134705,379.300964 357.409821,381.424408 
	C358.362305,383.010590 359.707916,384.360718 360.878418,385.815979 
	C362.689270,383.966553 364.774719,382.291443 366.131653,380.153870 
	C366.503723,379.567719 364.683197,377.602692 363.894287,376.255554 
	C363.737427,375.987701 363.696594,375.651855 363.249481,374.208740 
	C365.934448,374.532074 368.170746,374.801392 370.407043,375.070679 
	C369.904175,376.974060 369.595398,378.958984 368.840485,380.756500 
	C368.166168,382.362122 366.999359,383.760864 365.808380,385.629791 
	C367.796814,386.478210 369.244720,387.096008 370.692657,387.713806 
	C366.031433,388.789429 361.476044,390.015839 356.852753,387.180573 
	C355.264374,386.206512 352.975647,386.374481 350.756592,386.191162 
z"/>
<path fill="#131419" opacity="1.000000" stroke="none" 
	d="
M339.403625,379.515778 
	C340.747864,378.237305 341.768372,377.057373 343.586792,374.954834 
	C343.586792,379.757385 343.586792,383.239288 343.586792,386.678772 
	C341.473389,385.433136 339.666016,383.567505 337.802521,383.509674 
	C336.157654,383.458618 334.450134,385.424225 332.460754,386.697479 
	C332.460754,383.281372 332.460754,379.800140 332.460754,376.636780 
	C334.727234,377.656342 336.903564,378.635345 339.403625,379.515778 
z"/>
<path fill="#131419" opacity="1.000000" stroke="none" 
	d="
M377.828613,375.972717 
	C380.917450,380.676208 383.077850,377.014771 385.990753,375.681549 
	C384.361298,379.402832 382.731873,383.124084 381.054352,386.955200 
	C379.391174,383.227386 377.794067,379.666962 376.241699,376.087128 
	C376.188232,375.963806 376.561768,375.486328 376.772766,375.459320 
	C377.047394,375.424255 377.358612,375.674957 377.828613,375.972717 
z"/>
<path fill="#1A1B2D" opacity="1.000000" stroke="none" 
	d="
M135.341446,196.435760 
	C133.003998,190.783554 132.742233,185.438568 134.926926,180.076187 
	C137.320984,174.199905 141.476257,170.434433 148.001480,170.161972 
	C154.749069,169.880249 159.890274,172.682541 162.895325,178.953506 
	C165.662537,184.728180 165.568466,190.581680 163.051956,196.325089 
	C160.825851,201.405670 156.915482,204.452744 151.196198,204.927414 
	C144.231812,205.505447 138.804047,203.218689 135.341446,196.435760 
z"/>
<path fill="#1A1B2D" opacity="1.000000" stroke="none" 
	d="
M237.987610,198.882263 
	C233.110886,189.880112 233.995300,180.374222 240.011948,174.548294 
	C248.026276,166.788010 260.385803,169.044250 264.977448,179.212006 
	C267.991974,185.887405 267.816742,192.522003 263.718567,198.751968 
	C260.051422,204.326675 254.320969,205.892715 248.355591,204.666367 
	C244.747253,203.924576 241.569611,201.087799 237.987610,198.882263 
z"/>
<path fill="#1A1B2D" opacity="1.000000" stroke="none" 
	d="
M250.513779,251.259338 
	C246.926086,251.253281 243.766861,251.340393 240.626785,251.134964 
	C239.607651,251.068314 237.866379,250.310135 237.811478,249.738098 
	C237.705490,248.633545 238.282944,247.176010 239.072388,246.323486 
	C242.217422,242.927216 249.485565,242.899902 252.715469,246.207428 
	C255.385574,248.941681 255.197601,250.846451 250.513779,251.259338 
z"/>
<path fill="#1A1B2D" opacity="1.000000" stroke="none" 
	d="
M340.268433,246.057159 
	C346.002594,242.910873 351.467957,243.273895 354.249023,246.741379 
	C356.094818,249.042786 355.953796,250.882858 352.664948,251.115051 
	C349.024963,251.372040 345.342560,251.382156 341.700165,251.154831 
	C337.807312,250.911850 337.626068,248.970093 340.268433,246.057159 
z"/>
</svg>